Coordinates
version=1
nRows=16
nColumns=40
inDegrees=yes

Units are S.I. units (second, meters, Newtons, ...)
If the header above contains a line with 'inDegrees', this indicates whether rotational values are in degrees (yes) or radians (no).

endheader
time	pelvis_tilt	pelvis_list	pelvis_rotation	pelvis_tx	pelvis_ty	pelvis_tz	hip_flexion_r	hip_adduction_r	hip_rotation_r	knee_angle_r	knee_angle_r_beta	ankle_angle_r	subtalar_angle_r	mtp_angle_r	hip_flexion_l	hip_adduction_l	hip_rotation_l	knee_angle_l	knee_angle_l_beta	ankle_angle_l	subtalar_angle_l	mtp_angle_l	lumbar_extension	lumbar_bending	lumbar_rotation	arm_flex_r	arm_add_r	arm_rot_r	elbow_flex_r	pro_sup_r	wrist_flex_r	wrist_dev_r	arm_flex_l	arm_add_l	arm_rot_l	elbow_flex_l	pro_sup_l	wrist_flex_l	wrist_dev_l
      3.91700000	    -28.30663756	      1.37089566	     12.67900883	      0.07119606	      1.27244643	     -0.01259156	     56.59798565	    -12.01772590	     -2.93601473	     40.87787406	      0.71345349	    -19.22454647	    -18.28713304	      0.00000000	    100.79537659	      7.06233648	      5.52304821	    108.09300228	      1.88657879	    -14.20217435	    -22.40252997	      0.00000000	    -23.75320195	     -3.69748633	     -5.32285980	     61.17027077	      8.22813858	    -61.13756460	     33.91053395	     78.96656730	      0.00000000	      0.00000000	     58.49209033	     13.61588023	    -39.87604364	     33.25406948	      5.62744383	      0.00000000	      0.00000000
      3.93300000	    -28.23581240	      1.48236522	     12.92964672	      0.07141929	      1.27257759	     -0.01270721	     55.58632727	    -12.27454919	     -3.01243545	     42.49186918	      0.74162302	    -18.17129377	    -19.26378061	      0.00000000	    102.15585090	      7.35481858	      4.89284669	    106.90056520	      1.86576684	    -13.59462949	    -22.23048057	      0.00000000	    -23.98205988	     -3.88287907	     -5.52155547	     61.10474711	      7.90574081	    -60.71615864	     33.73935155	     78.72482707	      0.00000000	      0.00000000	     58.59956234	     13.81848645	    -39.81305260	     33.37621005	      5.83029137	      0.00000000	      0.00000000
      3.95000000	    -28.17894175	      1.63574450	     13.13301854	      0.07168252	      1.27273994	     -0.01280869	     55.27963529	    -12.56738802	     -2.71873405	     45.09238515	      0.78701059	    -17.41237091	    -20.20029949	      0.00000000	    102.86934424	      7.63972692	      4.26648108	    105.03148000	      1.83314514	    -12.97335083	    -22.22884283	      0.00000000	    -24.21191217	     -4.06420686	     -5.67872898	     61.05411177	      7.63210972	    -60.28255178	     33.69264386	     78.54835390	      0.00000000	      0.00000000	     58.70077191	     14.03565904	    -39.80912294	     33.55044727	      5.82165166	      0.00000000	      0.00000000
      3.96700000	    -28.12020624	      1.80994243	     13.22142434	      0.07202984	      1.27289221	     -0.01266776	     55.71175418	    -12.79723818	     -1.93230505	     48.68629341	      0.84973612	    -16.97889768	    -20.65950941	      0.00000000	    102.83072639	      7.82911180	      3.75526680	    102.45770857	      1.78822436	    -12.12447210	    -22.18696224	      0.00000000	    -24.44786272	     -4.27824897	     -5.80918992	     61.09995691	      7.46287587	    -59.95696043	     33.59148079	     78.47010956	      0.00000000	      0.00000000	     58.84749164	     14.19036958	    -40.01792315	     33.74880028	      5.69107199	      0.00000000	      0.00000000
      3.98300000	    -28.01336159	      1.98998228	     13.15071204	      0.07243049	      1.27307074	     -0.01250684	     56.74428240	    -12.94121094	     -0.84506303	     53.16904990	      0.92797498	    -16.73901778	    -20.82557988	      0.00000000	    102.09711864	      7.88181251	      3.33331614	     99.27097629	      1.73260539	    -11.15817272	    -22.10678508	      0.00000000	    -24.72241902	     -4.45317911	     -5.80306887	     61.27005078	      7.33639552	    -59.71186867	     33.50523813	     78.46450494	      0.00000000	      0.00000000	     59.00536828	     14.34473786	    -40.36562848	     33.93393545	      5.51312089	      0.00000000	      0.00000000
      4.00000000	    -27.87512137	      2.11860390	     12.95041432	      0.07278923	      1.27332407	     -0.01211903	     58.16946530	    -12.95629089	      0.30249735	     58.04515483	      1.01307907	    -16.73376554	    -20.76937091	      0.00000000	    100.77677051	      7.75003087	      3.01161980	     95.63152638	      1.66908500	    -10.28689195	    -21.94884030	      0.00000000	    -24.97547280	     -4.58815788	     -5.66799114	     61.43081155	      7.29431653	    -59.54099255	     33.52274348	     78.60219067	      0.00000000	      0.00000000	     59.13468704	     14.43014874	    -40.63488439	     34.13880096	      5.17889832	      0.00000000	      0.00000000
      4.01700000	    -27.67586184	      2.18418680	     12.60864871	      0.07309008	      1.27368444	     -0.01165691	     59.98293742	    -12.79422379	      1.51713066	     63.39920004	      1.10652478	    -16.81730533	    -20.62362223	      0.00000000	     98.79291814	      7.36108066	      2.69642267	     91.42729790	      1.59570737	     -9.39356671	    -21.66536022	      0.00000000	    -25.19470113	     -4.66495254	     -5.33432048	     61.56245938	      7.29199887	    -59.45624689	     33.60192725	     78.73176527	      0.00000000	      0.00000000	     59.25904664	     14.49301485	    -40.78182785	     34.22009848	      4.99708797	      0.00000000	      0.00000000
      4.03300000	    -27.36627092	      2.14009358	     12.06584280	      0.07343956	      1.27406296	     -0.01097004	     62.09186268	    -12.39580949	      2.66930106	     69.10341818	      1.20608217	    -17.20826127	    -20.37555339	      0.00000000	     96.19149279	      6.72467380	      2.54657316	     86.73937079	      1.51388761	     -8.65500233	    -21.11761189	      0.00000000	    -25.43478510	     -4.63633435	     -4.78493121	     61.75193090	      7.35375616	    -59.43132055	     33.68626698	     78.82135595	      0.00000000	      0.00000000	     59.36518473	     14.49658791	    -40.90772430	     34.24271401	      4.89821025	      0.00000000	      0.00000000
      4.05000000	    -27.10482842	      2.02800561	     11.46609880	      0.07373451	      1.27433452	     -0.01020871	     64.35235838	    -11.81878247	      3.84856953	     74.56702685	      1.30144013	    -17.59456276	    -20.14025015	      0.00000000	     93.33513392	      6.00231526	      2.42221788	     81.95524846	      1.43038892	     -8.28754612	    -20.53011745	      0.00000000	    -25.59124523	     -4.51779671	     -4.15146525	     61.91522906	      7.38173628	    -59.35549643	     33.73089867	     78.91605065	      0.00000000	      0.00000000	     59.39343160	     14.46677007	    -40.94252934	     34.27528541	      4.85821038	      0.00000000	      0.00000000
      4.06700000	    -27.14322012	      2.34444630	     10.79899259	      0.07375389	      1.27435837	     -0.00942102	     67.08134645	    -11.47729187	      5.39909084	     79.82235094	      1.39316284	    -17.62905845	    -19.59181157	      0.00000000	     90.29941757	      5.16764424	      1.68061146	     76.94901025	      1.34301358	     -8.12122089	    -19.86849635	      0.00000000	    -25.52821456	     -4.84990160	     -3.79121119	     62.02655481	      7.50831840	    -58.91478332	     33.74685425	     78.79817439	      0.00000000	      0.00000000	     59.33587700	     14.29370938	    -41.05851216	     34.33033132	      5.28112567	      0.00000000	      0.00000000
      4.08300000	    -26.97405587	      2.32108519	      9.88789881	      0.07387543	      1.27445426	     -0.00812521	     69.67788779	    -10.60617331	      6.59267996	     84.88240500	      1.48147744	    -17.46712356	    -19.56283285	      0.00000000	     86.86731473	      4.07116340	      1.22147756	     71.87686711	      1.25448799	     -8.74157349	    -19.29704942	      0.00000000	    -25.58019256	     -4.85163942	     -3.07345937	     62.23469585	      7.56297534	    -58.42364807	     33.55281607	     78.70996105	      0.00000000	      0.00000000	     59.27429318	     14.09061894	    -41.07249805	     34.34062095	      5.59375602	      0.00000000	      0.00000000
      4.10000000	    -27.04879597	      2.67139265	      9.00767992	      0.07395662	      1.27430652	     -0.00682069	     72.63116031	     -9.87274961	      8.17012714	     89.56791038	      1.56325494	    -17.29992914	    -19.25541130	      0.00000000	     83.39303503	      3.17241372	      0.35273344	     66.77086570	      1.16537145	     -9.31232615	    -18.99214233	      0.00000000	    -25.47857055	     -5.25850830	     -2.52704146	     62.30659664	      7.64158778	    -57.86540082	     33.52022729	     78.78644685	      0.00000000	      0.00000000	     59.22472327	     13.87934311	    -41.16064052	     34.32007101	      5.54503510	      0.00000000	      0.00000000
      4.11700000	    -27.23852052	      2.97873003	      8.08916660	      0.07397363	      1.27398389	     -0.00543631	     75.76702334	     -8.97126913	      9.73090532	     93.82763403	      1.63760114	    -16.73229416	    -18.78565826	      0.00000000	     79.88581609	      2.32271782	     -0.47963416	     61.66851351	      1.07631861	    -10.25800235	    -18.63803335	      0.00000000	    -25.29697082	     -5.60314358	     -1.88613692	     62.44477894	      7.78186495	    -57.64845511	     33.49699860	     78.91706108	      0.00000000	      0.00000000	     59.20449725	     13.74347627	    -41.40561239	     34.26567252	      5.32917403	      0.00000000	      0.00000000
      4.13300000	    -27.47829919	      3.37283427	      7.07742561	      0.07400683	      1.27355827	     -0.00378234	     79.03168790	     -7.88033097	     11.36184243	     97.73077372	      1.70572378	    -15.83035729	    -18.22759712	      0.00000000	     76.23235666	      1.50536475	     -1.39928552	     56.53573143	      0.98673466	    -11.46057988	    -18.13092859	      0.00000000	    -25.09411603	     -6.06679306	     -1.22384246	     62.60856720	      7.98808139	    -57.54990437	     33.42866467	     79.04822847	      0.00000000	      0.00000000	     59.21763432	     13.58528539	    -41.85051006	     34.18311570	      5.15692232	      0.00000000	      0.00000000
      4.15000000	    -27.71772084	      3.79756855	      6.09962608	      0.07403851	      1.27312875	     -0.00221934	     82.23883328	     -6.67347700	     12.94581580	    101.18720474	      1.76604988	    -14.70334136	    -17.53606940	      0.00000000	     72.71455802	      0.85775139	     -2.36250959	     51.86284357	      0.90517738	    -12.81128063	    -17.93731602	      0.00000000	    -24.85539031	     -6.53214942	     -0.59355883	     62.72587061	      8.21924434	    -57.57903194	     33.39234585	     79.20681288	      0.00000000	      0.00000000	     59.16024047	     13.44827092	    -42.29288010	     34.11663005	      5.01185352	      0.00000000	      0.00000000
      4.16700000	    -27.93733819	      4.24034976	      5.10307684	      0.07387053	      1.27278250	     -0.00062169	     85.37791125	     -5.31619027	     14.44274816	    104.23791211	      1.81929477	    -13.21562713	    -16.74619397	      0.00000000	     69.35556252	      0.31258487	     -3.33321908	     47.82099435	      0.83463380	    -14.15598419	    -17.91170450	      0.00000000	    -24.61494235	     -7.00127224	      0.01921687	     62.82857647	      8.50089990	    -57.67873216	     33.38671166	     79.42996401	      0.00000000	      0.00000000	     59.06653843	     13.26103836	    -42.69672735	     34.02914011	      4.91813707	      0.00000000	      0.00000000
